<svg width="151" height="62" viewBox="0 0 151 62" fill="none" xmlns="http://www.w3.org/2000/svg">
<path d="M34.9 25.5083C34.9 26.7768 34.6916 27.9004 34.2748 28.879C33.858 29.8576 33.2056 30.6822 32.3176 31.3527C31.4296 32.0232 30.2789 32.5306 28.8653 32.8749C27.4699 33.2192 25.7755 33.3914 23.7821 33.3914H12.3108V43.2045H10.0002V17.6524H23.7821C25.7755 17.6524 27.4699 17.8245 28.8653 18.1688C30.2789 18.5132 31.4296 19.0115 32.3176 19.6639C33.2056 20.3163 33.858 21.1318 34.2748 22.1104C34.6916 23.089 34.9 24.2216 34.9 25.5083ZM32.5079 25.5083C32.5079 24.2941 32.3085 23.3155 31.9099 22.5725C31.4931 21.8295 30.8678 21.2587 30.0342 20.86C29.2006 20.4432 28.1405 20.1713 26.8538 20.0445C25.5852 19.8995 24.063 19.827 22.287 19.827H12.3108V31.2168H22.287C22.9757 31.2168 23.7096 31.2168 24.4889 31.2168C25.25 31.2168 26.0111 31.1805 26.7722 31.108C27.5334 31.0355 28.2583 30.8906 28.9469 30.6731C29.6355 30.4737 30.2426 30.1657 30.7682 29.7489C31.2937 29.3321 31.7105 28.7793 32.0186 28.0907C32.3448 27.4021 32.5079 26.5413 32.5079 25.5083ZM60.0716 19.6367C59.7092 19.528 59.2108 19.4102 58.5765 19.2834C57.9423 19.1384 57.1268 19.0659 56.13 19.0659C54.7346 19.0659 53.4298 19.238 52.2157 19.5824C50.9834 19.9267 49.8507 20.3888 48.8178 20.9687C47.7667 21.5486 46.7972 22.2282 45.9092 23.0074C45.0031 23.7867 44.1966 24.6112 43.4899 25.4811V43.2045H41.1521V17.6524H43.4899V22.8715C44.3235 22.0198 45.2205 21.2315 46.181 20.5066C47.1596 19.7817 48.1835 19.1656 49.2527 18.6581C50.34 18.1507 51.4727 17.752 52.6506 17.4621C53.8285 17.154 55.0518 17 56.3203 17C56.7553 17 57.1449 17.0181 57.4892 17.0543C57.8335 17.0725 58.1507 17.0906 58.4406 17.1087C58.7306 17.1449 59.0115 17.1812 59.2833 17.2174C59.537 17.2537 59.7998 17.299 60.0716 17.3534V19.6367ZM66.7043 43.2045H64.3665V17.6524H66.7043V43.2045ZM103.157 30.4013C103.157 32.0504 102.994 33.5092 102.668 34.7777C102.323 36.0463 101.843 37.1517 101.227 38.0941C100.593 39.0364 99.8405 39.8338 98.9707 40.4862C98.0827 41.1386 97.095 41.6641 96.0077 42.0628C94.9204 42.4615 93.7424 42.7515 92.4739 42.9327C91.2054 43.1139 89.8734 43.2045 88.478 43.2045H75.2942V17.6524H88.4236C90.5258 17.6524 92.4739 17.8608 94.268 18.2776C96.0621 18.6944 97.6206 19.3921 98.9435 20.3707C100.266 21.3493 101.299 22.6541 102.042 24.2851C102.785 25.9342 103.157 27.9729 103.157 30.4013ZM100.765 30.4013C100.765 29.024 100.629 27.8007 100.357 26.7315C100.085 25.6623 99.6955 24.7381 99.1881 23.9589C98.6807 23.1615 98.0646 22.5 97.3397 21.9745C96.5967 21.4489 95.7721 21.014 94.866 20.6697C93.9418 20.3435 92.9451 20.117 91.8759 19.9901C90.7886 19.8451 89.6378 19.7727 88.4236 19.7727H77.6319V41.0571H88.4236C90.2539 41.0571 91.9212 40.894 93.4253 40.5678C94.9476 40.2416 96.2433 39.6707 97.3125 38.8552C98.3998 38.0397 99.2516 36.9524 99.8677 35.5932C100.466 34.216 100.765 32.4853 100.765 30.4013ZM135.668 39.1542V41.8454C134.635 42.1716 133.665 42.4525 132.759 42.688C131.871 42.9236 130.992 43.1048 130.123 43.2317C129.253 43.3767 128.374 43.4854 127.486 43.5579C126.58 43.6304 125.592 43.6666 124.523 43.6666C122.022 43.6666 119.757 43.3586 117.727 42.7424C115.715 42.1444 114.003 41.2745 112.589 40.1328C111.158 39.0093 110.061 37.641 109.3 36.0282C108.539 34.4153 108.159 32.6031 108.159 30.5915C108.159 28.6525 108.521 26.8675 109.246 25.2365C109.989 23.6236 111.022 22.2373 112.345 21.0774C113.668 19.8995 115.253 18.9934 117.102 18.3591C118.95 17.7067 120.989 17.3805 123.218 17.3805C125.538 17.3805 127.604 17.6886 129.416 18.3048C131.21 18.939 132.732 19.827 133.983 20.9687C135.215 22.1285 136.157 23.5239 136.81 25.1549C137.444 26.804 137.761 28.6525 137.761 30.7003V31.2711H110.551C110.678 32.8659 111.076 34.2975 111.747 35.5661C112.399 36.8527 113.323 37.9401 114.519 38.828C115.734 39.716 117.229 40.4047 119.005 40.894C120.762 41.3651 122.819 41.6007 125.175 41.6007C126.172 41.6007 127.187 41.5282 128.22 41.3833C129.253 41.2564 130.24 41.0752 131.183 40.8396C132.125 40.6221 132.986 40.3594 133.765 40.0513C134.544 39.7613 135.179 39.4623 135.668 39.1542ZM110.551 29.2596H135.478C135.387 27.9548 135.097 26.7134 134.608 25.5355C134.118 24.3575 133.375 23.3155 132.379 22.4094C131.4 21.5033 130.15 20.7784 128.627 20.2348C127.123 19.7092 125.311 19.4465 123.191 19.4465C121.197 19.4465 119.449 19.7092 117.945 20.2348C116.44 20.7784 115.172 21.4942 114.139 22.3822C113.088 23.2883 112.272 24.3304 111.692 25.5083C111.094 26.7044 110.714 27.9548 110.551 29.2596Z" fill="white"/>
</svg>
